<svg width="256" height="256" viewBox="0 0 256 256" fill="none" xmlns="http://www.w3.org/2000/svg">
<rect x="0.5" y="0.5" width="255" height="255" rx="127.5" fill="#F1BC96"/>
<path d="M231.263 200.281C231.178 191.798 230.466 183.295 229.114 174.842L72.4972 199.884C65.8941 200.94 60.1353 195.342 61.0029 188.712L81.5814 31.4452C74.7332 30.5491 67.8643 30.0696 61.0108 30C154.631 30.9314 230.347 106.657 231.263 200.281Z" fill="#454E0F"/>
<path d="M221.263 200.381C221.183 192.391 220.512 184.382 219.239 176.421L72.4972 199.884C65.8941 200.94 60.1353 195.342 61.0029 188.712L80.2839 41.3612C73.8338 40.5172 67.3643 40.0656 60.9093 40C149.087 40.8772 220.4 112.2 221.263 200.381Z" fill="#F87C7C"/>
<path d="M106.755 78.6351C92.6059 72.699 90.3979 110.529 94.6679 112.073C98.938 113.616 120.903 84.5713 106.755 78.6351Z" fill="#463D3D"/>
<path d="M113.144 172.667C123.76 161.588 89.2384 145.959 86.2662 149.392C83.294 152.824 102.529 183.745 113.144 172.667Z" fill="#463D3D"/>
<path d="M174.423 145.504C162.731 135.568 149.188 170.96 152.792 173.722C156.395 176.485 186.114 155.441 174.423 145.504Z" fill="#463D3D"/>
<rect x="0.5" y="0.5" width="255" height="255" rx="127.5" stroke="white"/>
</svg>
